<?xml version="1.0" encoding="UTF-8" standalone="no"?>
<svg
   xmlns:dc="http://purl.org/dc/elements/1.1/"
   xmlns:cc="http://creativecommons.org/ns#"
   xmlns:rdf="http://www.w3.org/1999/02/22-rdf-syntax-ns#"
   xmlns:svg="http://www.w3.org/2000/svg"
   xmlns="http://www.w3.org/2000/svg"
   xmlns:sodipodi="http://sodipodi.sourceforge.net/DTD/sodipodi-0.dtd"
   xmlns:inkscape="http://www.inkscape.org/namespaces/inkscape"
   version="1.1"
   x="0px"
   y="0px"
   width="40px"
   height="40px"
   viewBox="-15.235 0 58.038 46.425"
   enable-background="new 0 0 27.568 46.425"
   xml:space="preserve"
   id="svg6"
   sodipodi:docname="bigFont.svg"
   inkscape:export-filename="C:\Users\Alaa\Desktop\2gatherapi-js-master\images\accessibility\bigFont.png"
   inkscape:export-xdpi="170"
   inkscape:export-ydpi="170"
   inkscape:version="0.92.0 r15299"><metadata
     id="metadata12"><rdf:RDF><cc:Work
         rdf:about=""><dc:format>image/svg+xml</dc:format><dc:type
           rdf:resource="http://purl.org/dc/dcmitype/StillImage" /></cc:Work></rdf:RDF></metadata><defs
     id="defs10" /><sodipodi:namedview
     pagecolor="#ffffff"
     bordercolor="#666666"
     borderopacity="1"
     objecttolerance="10"
     gridtolerance="10"
     guidetolerance="10"
     inkscape:pageopacity="0"
     inkscape:pageshadow="2"
     inkscape:window-width="1920"
     inkscape:window-height="1001"
     id="namedview8"
     showgrid="false"
     inkscape:zoom="5.9"
     inkscape:cx="20"
     inkscape:cy="20"
     inkscape:window-x="-9"
     inkscape:window-y="-9"
     inkscape:window-maximized="1"
     inkscape:current-layer="svg6" /><path
     fill="#010101"
     d="M27.568,46.425h-4.624c-2.659-4.238-6.878-10.094-12.657-17.569c-1.349,0.732-2.467,1.917-3.352,3.555          c-0.887,1.638-1.33,3.246-1.33,4.825v9.189h-4.16v-8.438c0-2.197,0.712-4.411,2.139-6.646c1.424-2.234,3.139-3.736,5.143-4.508          C7.84,25.6,6.55,23.963,4.854,21.92L0,16.083h4.854c2.312,2.774,6.261,7.803,11.849,15.084c1.232-0.347,2.359-1.232,3.38-2.658          c1.021-1.425,1.532-2.793,1.532-4.104v-8.322h4.161v6.588c0,2.39-0.693,4.586-2.081,6.589c-1.387,2.004-3.198,3.41-5.433,4.22           C22.193,38.604,25.294,42.919,27.568,46.425z"
     id="path2" /><path
     d="M21.818,9.805l-8.034-6.736L5.75,9.805c-0.564,0.472-1.403,0.397-1.875-0.165l0,0C3.402,9.075,3.476,8.237,4.039,7.765l0,0         l8.89-7.453c0.495-0.415,1.215-0.415,1.71,0l0,0l8.89,7.453h0.001c0.563,0.473,0.637,1.312,0.164,1.875l0,0         c-0.264,0.313-0.642,0.476-1.021,0.476l0,0C22.37,10.115,22.067,10.013,21.818,9.805L21.818,9.805z"
     id="path4" /></svg>