<?xml version="1.0" encoding="UTF-8" standalone="no"?>
<svg
   xmlns:dc="http://purl.org/dc/elements/1.1/"
   xmlns:cc="http://creativecommons.org/ns#"
   xmlns:rdf="http://www.w3.org/1999/02/22-rdf-syntax-ns#"
   xmlns:svg="http://www.w3.org/2000/svg"
   xmlns="http://www.w3.org/2000/svg"
   xmlns:sodipodi="http://sodipodi.sourceforge.net/DTD/sodipodi-0.dtd"
   xmlns:inkscape="http://www.inkscape.org/namespaces/inkscape"
   version="1.1"
   x="0px"
   y="0px"
   width="40px"
   height="40px"
   viewBox="-2.214 0 88.574 53.229"
   enable-background="new 0 0 84.145 53.229"
   xml:space="preserve"
   id="svg16"
   sodipodi:docname="brightContrast.svg"
   inkscape:export-filename="C:\Users\Alaa\Desktop\2gatherapi-js-master\images\accessibility\brightContrast.png"
   inkscape:export-xdpi="170"
   inkscape:export-ydpi="170"
   inkscape:version="0.92.0 r15299"><metadata
     id="metadata22"><rdf:RDF><cc:Work
         rdf:about=""><dc:format>image/svg+xml</dc:format><dc:type
           rdf:resource="http://purl.org/dc/dcmitype/StillImage" /></cc:Work></rdf:RDF></metadata><defs
     id="defs20" /><sodipodi:namedview
     pagecolor="#ffffff"
     bordercolor="#666666"
     borderopacity="1"
     objecttolerance="10"
     gridtolerance="10"
     guidetolerance="10"
     inkscape:pageopacity="0"
     inkscape:pageshadow="2"
     inkscape:window-width="1920"
     inkscape:window-height="1001"
     id="namedview18"
     showgrid="false"
     inkscape:zoom="5.9"
     inkscape:cx="20"
     inkscape:cy="20"
     inkscape:window-x="-9"
     inkscape:window-y="-9"
     inkscape:window-maximized="1"
     inkscape:current-layer="svg16" /><path
     d="M9.962,43.885c0-0.923,0.748-1.669,1.669-1.669l0,0h69.177V3.504L52.25,3.505c-0.922,0-1.669-0.747-1.669-1.669l0,0            c0-0.922,0.747-1.669,1.669-1.669l0,0h30.226c0.44,0,0.87,0.179,1.181,0.489l0,0c0.311,0.311,0.488,0.74,0.488,1.18l0,0v42.049          c0,0.438-0.178,0.868-0.488,1.179l0,0c-0.311,0.311-0.74,0.489-1.181,0.489l0,0H11.631v0.001           C10.71,45.554,9.962,44.806,9.962,43.885L9.962,43.885z"
     id="path2" /><path
     d="M22.24,53.229c-0.922,0-1.669-0.748-1.669-1.669l0,0c0-0.921,0.747-1.669,1.669-1.669l0,0h39.713          c0.921,0,1.668,0.748,1.668,1.669l0,0c0,0.921-0.747,1.669-1.668,1.669l0,0H22.24L22.24,53.229z"
     id="path4" /><path
     d="M1.621,44.563c-0.651-0.65-0.651-1.708,0-2.358l0,0L43.336,0.488c0.651-0.65,1.708-0.65,2.359,0l0,0           c0.652,0.652,0.652,1.709,0,2.36l0,0L3.981,44.563c-0.326,0.326-0.754,0.489-1.181,0.489l0,0           C2.374,45.052,1.947,44.889,1.621,44.563L1.621,44.563z"
     id="path6" /><path
     d="M0.609,36.148c-0.651-0.652-0.651-1.708,0-2.359l0,0l33.299-33.3c0.652-0.651,1.708-0.651,2.36,0l0,0          c0.651,0.651,0.651,1.708,0,2.359l0,0l-33.3,33.3c-0.326,0.326-0.753,0.488-1.181,0.488l0,0C1.361,36.637,0.935,36.475,0.609,36.148         L0.609,36.148z"
     id="path8" /><path
     d="M0.631,26.699c-0.651-0.652-0.651-1.709,0-2.36l0,0l23.85-23.85c0.652-0.652,1.708-0.652,2.359,0l0,0          c0.652,0.651,0.652,1.708,0,2.359l0,0L2.99,26.699c-0.326,0.325-0.753,0.488-1.18,0.488l0,0C1.384,27.188,0.957,27.024,0.631,26.699         L0.631,26.699z"
     id="path10" /><path
     d="M0.488,17.414c-0.651-0.651-0.651-1.707,0-2.359l0,0L15.053,0.488c0.652-0.651,1.709-0.651,2.36,0l0,0         c0.651,0.652,0.651,1.709,0,2.36l0,0L2.847,17.414c-0.325,0.326-0.752,0.489-1.179,0.489l0,0C1.24,17.903,0.813,17.74,0.488,17.414          L0.488,17.414z"
     id="path12" /><path
     d="M0.565,7.909c-0.652-0.651-0.652-1.708,0-2.359l0,0l5.061-5.062c0.651-0.651,1.708-0.651,2.359,0l0,0          c0.651,0.652,0.651,1.709,0,2.36l0,0L2.925,7.909c-0.326,0.326-0.753,0.489-1.18,0.489l0,0C1.318,8.398,0.891,8.235,0.565,7.909         L0.565,7.909z"
     id="path14" /></svg>