<?xml version="1.0" encoding="UTF-8" standalone="no"?>
<svg
   xmlns:dc="http://purl.org/dc/elements/1.1/"
   xmlns:cc="http://creativecommons.org/ns#"
   xmlns:rdf="http://www.w3.org/1999/02/22-rdf-syntax-ns#"
   xmlns:svg="http://www.w3.org/2000/svg"
   xmlns="http://www.w3.org/2000/svg"
   xmlns:sodipodi="http://sodipodi.sourceforge.net/DTD/sodipodi-0.dtd"
   xmlns:inkscape="http://www.inkscape.org/namespaces/inkscape"
   version="1.1"
   x="0px"
   y="0px"
   width="40px"
   height="40px"
   viewBox="-5.738 0 76.515 41.28"
   enable-background="new 0 0 65.038 41.28"
   xml:space="preserve"
   id="svg14"
   sodipodi:docname="colorBlind.svg"
   inkscape:export-filename="C:\Users\Alaa\Desktop\2gatherapi-js-master\images\accessibility\colorBlind.png"
   inkscape:export-xdpi="170"
   inkscape:export-ydpi="170"
   inkscape:version="0.92.0 r15299"><metadata
     id="metadata20"><rdf:RDF><cc:Work
         rdf:about=""><dc:format>image/svg+xml</dc:format><dc:type
           rdf:resource="http://purl.org/dc/dcmitype/StillImage" /></cc:Work></rdf:RDF></metadata><defs
     id="defs18" /><sodipodi:namedview
     pagecolor="#ffffff"
     bordercolor="#666666"
     borderopacity="1"
     objecttolerance="10"
     gridtolerance="10"
     guidetolerance="10"
     inkscape:pageopacity="0"
     inkscape:pageshadow="2"
     inkscape:window-width="1920"
     inkscape:window-height="1001"
     id="namedview16"
     showgrid="false"
     inkscape:zoom="5.9"
     inkscape:cx="20"
     inkscape:cy="20"
     inkscape:window-x="-9"
     inkscape:window-y="-9"
     inkscape:window-maximized="1"
     inkscape:current-layer="svg14" /><path
     d="M62.121,19.896L46.072,8.236c-4.245-3.083-9.146-4.562-14.015-4.562l0,0c-7.391,0.002-14.665,3.41-19.339,9.845l0,0            c-0.596,0.82-1.745,1.003-2.565,0.406l0,0C9.331,13.33,9.149,12.18,9.746,11.36l0,0C15.134,3.942,23.544-0.003,32.057,0l0,0         c5.612-0.001,11.289,1.713,16.174,5.264l0,0l16.05,11.661c0.82,0.596,1.002,1.746,0.405,2.565l0,0          c-0.359,0.495-0.92,0.757-1.488,0.757l0,0C62.824,20.247,62.447,20.133,62.121,19.896L62.121,19.896z"
     id="path2" /><path
     d="M32.98,41.28c-5.612,0.001-11.289-1.714-16.174-5.264l0,0L0.757,24.356c-0.821-0.596-1.003-1.745-0.406-2.565l0,0          c0.596-0.821,1.745-1.003,2.566-0.407l0,0l16.049,11.66c4.243,3.082,9.145,4.561,14.014,4.562l0,0          c7.391-0.003,14.665-3.411,19.34-9.846l0,0v0.001c0.596-0.821,1.745-1.003,2.565-0.407l0,0c0.821,0.596,1.002,1.745,0.406,2.566l0,0         C49.906,37.334,41.5,41.28,32.99,41.28l0,0C32.987,41.28,32.984,41.28,32.98,41.28L32.98,41.28z"
     id="path4" /><path
     d="M32.125,33.106c0-1.014,0.823-1.836,1.837-1.836l0,0c5.813-0.01,10.517-4.714,10.528-10.528l0,0           c-0.011-5.814-4.714-10.517-10.528-10.527l0,0c-1.015,0-1.837-0.823-1.837-1.837l0,0c0-1.015,0.823-1.837,1.837-1.837l0,0           c7.844,0.001,14.2,6.357,14.202,14.201l0,0c-0.001,7.844-6.358,14.2-14.202,14.202l0,0C32.948,34.943,32.125,34.121,32.125,33.106           L32.125,33.106z"
     id="path6" /><path
     d="M25.448,33.165V8.319c0-1.015,0.822-1.837,1.836-1.837l0,0c1.015,0,1.837,0.823,1.837,1.837l0,0v24.845            c0,1.014-0.823,1.837-1.837,1.837l0,0C26.271,35.001,25.448,34.179,25.448,33.165L25.448,33.165z"
     id="path8" /><path
     d="M19.303,29.042V12.442c0-1.015,0.822-1.837,1.837-1.837l0,0c1.014,0,1.837,0.822,1.837,1.837l0,0v16.601           c0,1.014-0.823,1.836-1.837,1.836l0,0C20.125,30.879,19.303,30.056,19.303,29.042L19.303,29.042z"
     id="path10" /><path
     d="M13.542,23.731v-5.979c0-1.015,0.822-1.837,1.837-1.837l0,0c1.014,0,1.836,0.822,1.836,1.837l0,0v5.979            c0,1.015-0.822,1.836-1.836,1.836l0,0C14.365,25.567,13.542,24.746,13.542,23.731L13.542,23.731z"
     id="path12" /></svg>