<?xml version="1.0" encoding="UTF-8" standalone="no"?>
<svg
   xmlns:dc="http://purl.org/dc/elements/1.1/"
   xmlns:cc="http://creativecommons.org/ns#"
   xmlns:rdf="http://www.w3.org/1999/02/22-rdf-syntax-ns#"
   xmlns:svg="http://www.w3.org/2000/svg"
   xmlns="http://www.w3.org/2000/svg"
   xmlns:sodipodi="http://sodipodi.sourceforge.net/DTD/sodipodi-0.dtd"
   xmlns:inkscape="http://www.inkscape.org/namespaces/inkscape"
   version="1.1"
   x="0px"
   y="0px"
   width="40px"
   height="40px"
   viewBox="-0.874 0 69.891 43.106"
   enable-background="new 0 0 68.144 43.106"
   xml:space="preserve"
   id="svg22"
   sodipodi:docname="darkContrast.svg"
   inkscape:export-filename="C:\Users\Alaa\Desktop\2gatherapi-js-master\images\accessibility\darkContrast.png"
   inkscape:export-xdpi="170"
   inkscape:export-ydpi="170"
   inkscape:version="0.92.0 r15299"><metadata
     id="metadata28"><rdf:RDF><cc:Work
         rdf:about=""><dc:format>image/svg+xml</dc:format><dc:type
           rdf:resource="http://purl.org/dc/dcmitype/StillImage" /></cc:Work></rdf:RDF></metadata><defs
     id="defs26" /><sodipodi:namedview
     pagecolor="#ffffff"
     bordercolor="#666666"
     borderopacity="1"
     objecttolerance="10"
     gridtolerance="10"
     guidetolerance="10"
     inkscape:pageopacity="0"
     inkscape:pageshadow="2"
     inkscape:window-width="1920"
     inkscape:window-height="1001"
     id="namedview24"
     showgrid="false"
     inkscape:zoom="5.9"
     inkscape:cx="20"
     inkscape:cy="20"
     inkscape:window-x="-9"
     inkscape:window-y="-9"
     inkscape:window-maximized="1"
     inkscape:current-layer="svg22" /><path
     d="M31.311,35.539c0-0.746,0.604-1.352,1.352-1.352l0,0h32.779V1.486h0.001c0-0.746,0.604-1.351,1.351-1.351l0,0          c0.746,0,1.351,0.604,1.351,1.351l0,0v34.053c0,0.356-0.144,0.703-0.396,0.955l0,0c-0.251,0.252-0.6,0.396-0.955,0.396l0,0H32.662           C31.915,36.891,31.311,36.286,31.311,35.539L31.311,35.539z"
     id="path2" /><path
     d="M18.012,43.106c-0.746,0-1.352-0.605-1.352-1.351l0,0c0-0.747,0.605-1.353,1.352-1.353l0,0h32.161         c0.745,0,1.351,0.605,1.351,1.353l0,0c0,0.745-0.605,1.351-1.351,1.351l0,0H18.012L18.012,43.106z"
     id="path4" /><path
     d="M24.218,36.089c-0.527-0.527-0.527-1.383,0-1.91l0,0L58,0.396c0.528-0.527,1.384-0.527,1.911,0l0,0            c0.527,0.528,0.527,1.384,0,1.912l0,0L26.129,36.089c-0.264,0.264-0.61,0.396-0.956,0.396l0,0          C24.827,36.485,24.481,36.353,24.218,36.089L24.218,36.089z"
     id="path6" /><path
     d="M16.583,36.089c-0.527-0.527-0.527-1.383,0-1.911l0,0L50.365,0.396c0.527-0.527,1.383-0.527,1.911,0l0,0           c0.527,0.528,0.527,1.384,0,1.911l0,0L18.494,36.089c-0.264,0.264-0.609,0.396-0.956,0.396l0,0         C17.192,36.485,16.847,36.353,16.583,36.089L16.583,36.089z"
     id="path8" /><path
     d="M8.948,36.089c-0.527-0.527-0.527-1.383,0-1.91l0,0L42.73,0.396c0.528-0.527,1.383-0.527,1.911,0l0,0          c0.527,0.528,0.527,1.384,0,1.911l0,0L10.859,36.089c-0.264,0.264-0.609,0.396-0.956,0.396l0,0         C9.558,36.484,9.212,36.353,8.948,36.089L8.948,36.089z"
     id="path10" /><path
     d="M1.313,36.089c-0.527-0.527-0.527-1.383,0-1.911l0,0L35.095,0.396c0.529-0.527,1.385-0.527,1.912,0l0,0            c0.527,0.528,0.527,1.384,0,1.912l0,0L3.225,36.089c-0.264,0.264-0.609,0.396-0.955,0.396l0,0          C1.923,36.484,1.577,36.353,1.313,36.089L1.313,36.089z"
     id="path12" /><path
     d="M0.494,29.274c-0.528-0.528-0.528-1.384,0-1.911l0,0L27.46,0.396c0.529-0.527,1.385-0.527,1.912,0l0,0         c0.527,0.528,0.527,1.384,0,1.911l0,0L2.405,29.274c-0.265,0.264-0.61,0.396-0.956,0.396l0,0C1.104,29.67,0.757,29.538,0.494,29.274         L0.494,29.274z"
     id="path14" /><path
     d="M0.512,21.622c-0.528-0.528-0.528-1.384,0-1.911l0,0L19.826,0.396c0.527-0.527,1.383-0.527,1.911,0l0,0            c0.527,0.528,0.527,1.384,0,1.912l0,0L2.423,21.622c-0.265,0.264-0.61,0.396-0.956,0.396l0,0           C1.121,22.018,0.775,21.886,0.512,21.622L0.512,21.622z"
     id="path16" /><path
     d="M0.396,14.103c-0.527-0.527-0.527-1.383,0-1.911l0,0L12.191,0.396c0.528-0.528,1.383-0.528,1.911,0l0,0            c0.527,0.527,0.527,1.383,0,1.91l0,0L2.307,14.103c-0.264,0.264-0.609,0.396-0.956,0.396l0,0           C1.005,14.498,0.659,14.366,0.396,14.103L0.396,14.103z"
     id="path18" /><path
     d="M0.458,6.405c-0.527-0.527-0.527-1.383,0-1.91l0,0l4.099-4.1c0.527-0.527,1.384-0.527,1.911,0l0,0         c0.528,0.528,0.528,1.384,0,1.912l0,0L2.369,6.405C2.105,6.669,1.76,6.802,1.414,6.802l0,0C1.068,6.802,0.723,6.669,0.458,6.405         L0.458,6.405z"
     id="path20" /></svg>