<?xml version="1.0" encoding="UTF-8" standalone="no"?>
<svg
   xmlns:dc="http://purl.org/dc/elements/1.1/"
   xmlns:cc="http://creativecommons.org/ns#"
   xmlns:rdf="http://www.w3.org/1999/02/22-rdf-syntax-ns#"
   xmlns:svg="http://www.w3.org/2000/svg"
   xmlns="http://www.w3.org/2000/svg"
   xmlns:sodipodi="http://sodipodi.sourceforge.net/DTD/sodipodi-0.dtd"
   xmlns:inkscape="http://www.inkscape.org/namespaces/inkscape"
   version="1.1"
   x="0px"
   y="0px"
   width="40px"
   height="40px"
   viewBox="-31.705 0 211.369 143.104"
   enable-background="new 0 0 147.958 143.104"
   xml:space="preserve"
   id="svg4"
   sodipodi:docname="hightlightTitles.svg"
   inkscape:export-filename="C:\Users\Alaa\Desktop\2gatherapi-js-master\images\accessibility\hightlightTitles.png"
   inkscape:export-xdpi="170"
   inkscape:export-ydpi="170"
   inkscape:version="0.92.0 r15299"><metadata
     id="metadata10"><rdf:RDF><cc:Work
         rdf:about=""><dc:format>image/svg+xml</dc:format><dc:type
           rdf:resource="http://purl.org/dc/dcmitype/StillImage" /></cc:Work></rdf:RDF></metadata><defs
     id="defs8" /><sodipodi:namedview
     pagecolor="#ffffff"
     bordercolor="#666666"
     borderopacity="1"
     objecttolerance="10"
     gridtolerance="10"
     guidetolerance="10"
     inkscape:pageopacity="0"
     inkscape:pageshadow="2"
     inkscape:window-width="1920"
     inkscape:window-height="1001"
     id="namedview6"
     showgrid="false"
     inkscape:zoom="5.9"
     inkscape:cx="20"
     inkscape:cy="20"
     inkscape:window-x="-9"
     inkscape:window-y="-9"
     inkscape:window-maximized="1"
     inkscape:current-layer="svg4" /><path
     d="M40.736,66.381h66.485V25.434c0-7.316-0.458-12.137-1.371-14.458c-0.705-1.758-2.182-3.271-4.433-4.537            c-3.025-1.689-6.227-2.534-9.604-2.534h-5.065V0h61.209v3.904h-5.065c-3.377,0-6.58,0.81-9.604,2.428           c-2.252,1.127-3.783,2.833-4.591,5.118c-0.81,2.288-1.213,6.948-1.213,13.983v92.342c0,7.247,0.456,12.031,1.371,14.353         c0.703,1.759,2.146,3.271,4.327,4.538c3.096,1.688,6.332,2.533,9.709,2.533h5.065v3.904H86.749v-3.904h5.065            c5.839,0,10.095-1.724,12.77-5.172c1.758-2.25,2.638-7.668,2.638-16.252V74.189H40.736v43.586c0,7.247,0.457,12.031,1.372,14.353            c0.702,1.759,2.18,3.271,4.433,4.538c3.024,1.688,6.226,2.533,9.604,2.533h5.17v3.904H0v-3.904h5.065           c5.91,0,10.2-1.724,12.875-5.172c1.689-2.25,2.534-7.668,2.534-16.252V25.434c0-7.316-0.46-12.137-1.373-14.458         c-0.704-1.758-2.146-3.271-4.326-4.537c-3.098-1.689-6.333-2.534-9.71-2.534H0V0h61.314v3.904h-5.17            c-3.378,0-6.579,0.81-9.604,2.428c-2.182,1.127-3.693,2.833-4.538,5.118c-0.845,2.288-1.267,6.948-1.267,13.983V66.381z"
     id="path2" /></svg>