<?xml version="1.0" encoding="UTF-8" standalone="no"?>
<svg
   xmlns:dc="http://purl.org/dc/elements/1.1/"
   xmlns:cc="http://creativecommons.org/ns#"
   xmlns:rdf="http://www.w3.org/1999/02/22-rdf-syntax-ns#"
   xmlns:svg="http://www.w3.org/2000/svg"
   xmlns="http://www.w3.org/2000/svg"
   xmlns:sodipodi="http://sodipodi.sourceforge.net/DTD/sodipodi-0.dtd"
   xmlns:inkscape="http://www.inkscape.org/namespaces/inkscape"
   version="1.1"
   x="0px"
   y="0px"
   width="40px"
   height="40px"
   viewBox="-49.532 0 247.66 188.19"
   enable-background="new 0 0 148.596 188.19"
   xml:space="preserve"
   id="svg6"
   sodipodi:docname="links.svg"
   inkscape:export-filename="C:\Users\Alaa\Desktop\2gatherapi-js-master\images\accessibility\links.png"
   inkscape:export-xdpi="170"
   inkscape:export-ydpi="170"
   inkscape:version="0.92.0 r15299"><metadata
     id="metadata12"><rdf:RDF><cc:Work
         rdf:about=""><dc:format>image/svg+xml</dc:format><dc:type
           rdf:resource="http://purl.org/dc/dcmitype/StillImage" /></cc:Work></rdf:RDF></metadata><defs
     id="defs10" /><sodipodi:namedview
     pagecolor="#ffffff"
     bordercolor="#666666"
     borderopacity="1"
     objecttolerance="10"
     gridtolerance="10"
     guidetolerance="10"
     inkscape:pageopacity="0"
     inkscape:pageshadow="2"
     inkscape:window-width="1920"
     inkscape:window-height="1001"
     id="namedview8"
     showgrid="false"
     inkscape:zoom="5.9"
     inkscape:cx="20"
     inkscape:cy="20"
     inkscape:window-x="-9"
     inkscape:window-y="-9"
     inkscape:window-maximized="1"
     inkscape:current-layer="svg6" /><path
     d="M38.941,186.726L1.464,149.248c-1.951-1.951-1.951-5.116,0-7.07l0,0l21.216-21.213c1.951-1.952,5.116-1.952,7.07,0l0,0         c1.952,1.954,1.952,5.119,0,7.07l0,0l-17.678,17.679l30.405,30.403l35.354-35.354l24.043-24.04l19.091-19.093L90.563,67.224         L58.034,99.752h0.003c-1.954,1.954-5.122,1.954-7.074,0l0,0c-1.954-1.952-1.954-5.12,0-7.071l0,0l36.063-36.063         c1.952-1.954,5.119-1.954,7.071,0l0,0l37.477,37.478c0.944,0.943,1.463,2.198,1.463,3.534l0,0c0,1.335-0.519,2.59-1.463,3.536l0,0           l-22.628,22.628l-24.039,24.04l-38.895,38.892c-0.943,0.946-2.198,1.465-3.534,1.465l0,0           C41.142,188.19,39.888,187.672,38.941,186.726L38.941,186.726z"
     id="path2" /><path
     d="M54.498,131.571L17.022,94.095c-1.955-1.951-1.955-5.119,0-7.071l0,0l21.212-21.212l28.287-28.287l36.062-36.062           c1.951-1.951,5.116-1.951,7.071,0l0,0l37.476,37.477c0.945,0.945,1.466,2.201,1.466,3.537l0,0c0,1.335-0.521,2.589-1.466,3.534l0,0          L124.503,68.64c-1.951,1.952-5.119,1.952-7.071,0l0,0c-1.954-1.952-1.954-5.119,0-7.071l0,0l19.092-19.092l-30.406-30.407           L73.59,44.597L45.307,72.88L27.629,90.558l30.403,30.407l35.356-35.355h0.002c1.952-1.952,5.117-1.952,7.069,0l0,0          c1.952,1.952,1.952,5.117,0,7.071l0,0l-38.891,38.891c-0.945,0.945-2.199,1.465-3.534,1.465l0,0            C56.7,133.036,55.443,132.517,54.498,131.571L54.498,131.571z"
     id="path4" /></svg>